<svg xmlns="http://www.w3.org/2000/svg" version="1.1" xmlns:xlink="http://www.w3.org/1999/xlink" xmlns:svgjs="http://svgjs.dev/svgjs" width="1000" height="222" viewBox="0 0 1000 222"><g transform="matrix(1,0,0,1,-0.6060424975418073,-0.5762151439489571)"><svg viewBox="0 0 396 88" data-background-color="#1f0f53" preserveAspectRatio="xMidYMid meet" height="222" width="1000" xmlns="http://www.w3.org/2000/svg" xmlns:xlink="http://www.w3.org/1999/xlink"><g id="tight-bounds" transform="matrix(1,0,0,1,0.23999282902656205,0.22840960661039844)"><svg viewBox="0 0 395.52 87.54318078677917" height="87.54318078677917" width="395.52"><g><svg viewBox="0 0 678.9769959302275 150.2826807867722" height="87.54318078677917" width="395.52"><g><rect width="6.258519280162431" height="150.2826807867722" x="260.8149183250325" y="0" fill="#ffdb99" opacity="1" stroke-width="0" stroke="transparent" fill-opacity="1" class="rect-o-0" data-fill-palette-color="primary" rx="1%" id="o-0" data-palette-color="#ffdb99"></rect></g><g transform="matrix(1,0,0,1,283.4569959302275,12.523556732231015)"><svg viewBox="0 0 395.52 125.23556732231017" height="125.23556732231017" width="395.52"><g id="textblocktransform"><svg viewBox="0 0 395.52 125.23556732231017" height="125.23556732231017" width="395.52" id="textblock"><g><svg viewBox="0 0 395.52 69.39950831525671" height="69.39950831525671" width="395.52"><g transform="matrix(1,0,0,1,0,0)"><svg width="395.52" viewBox="3.5999999046325684 -35.70000076293945 207.4399871826172 36.400001525878906" height="69.39950831525671" data-palette-color="#ffdb99"><path d="M3.6-31.1L3.6-35 27-35 27-28.9 12.25-6.6Q11.2-5 10.65-3.85 10.1-2.7 10.1-1.5L10.1-1.5 10.1 0 6 0 6-1.8Q6-2.7 6.18-3.5 6.35-4.3 6.73-5.13 7.1-5.95 7.68-6.88 8.25-7.8 9.05-9L9.05-9 23.4-30.5 23.4-31.1 3.6-31.1ZM47.15-17.4L42.45-17.4 42.45-23.2 53.85-30.5 53.85-31.1 34.05-31.1 34.05-35 57.45-35 57.45-28.6 46.05-21.3 46.05-20.7 48.05-20.7Q50.05-20.7 51.9-20.05 53.75-19.4 55.17-18.15 56.6-16.9 57.47-15.08 58.35-13.25 58.35-10.85L58.35-10.85 58.35-9.95Q58.35-7.7 57.45-5.75 56.55-3.8 54.95-2.38 53.35-0.95 51.17-0.13 49 0.7 46.45 0.7L46.45 0.7Q43.5 0.7 41.15-0.2 38.8-1.1 37.15-2.68 35.5-4.25 34.62-6.38 33.75-8.5 33.75-10.9L33.75-10.9 33.75-13.6 37.95-13.6 37.95-11.2Q37.95-9.3 38.57-7.83 39.2-6.35 40.32-5.33 41.45-4.3 43-3.75 44.55-3.2 46.35-3.2L46.35-3.2Q48-3.2 49.42-3.75 50.85-4.3 51.9-5.28 52.95-6.25 53.55-7.58 54.15-8.9 54.15-10.4L54.15-10.4 54.15-10.7Q54.15-13.85 52.15-15.63 50.15-17.4 47.15-17.4L47.15-17.4ZM88.05-24.8L83.85-24.8Q83.85-28.05 81.85-30.03 79.85-32 76.3-32L76.3-32Q74.6-32 73.17-31.4 71.75-30.8 70.72-29.68 69.7-28.55 69.12-27 68.55-25.45 68.55-23.6L68.55-23.6 68.55-18.4 69.15-18.4Q70.35-20.6 72.57-21.85 74.8-23.1 77.55-23.1L77.55-23.1Q79.95-23.1 82-22.33 84.05-21.55 85.52-20.05 87-18.55 87.82-16.43 88.65-14.3 88.65-11.6L88.65-11.6 88.65-11Q88.65-8.4 87.72-6.25 86.8-4.1 85.17-2.55 83.55-1 81.32-0.15 79.1 0.7 76.5 0.7L76.5 0.7Q73.9 0.7 71.67-0.15 69.45-1 67.82-2.53 66.2-4.05 65.27-6.18 64.35-8.3 64.35-10.85L64.35-10.85 64.35-23.6Q64.35-26.35 65.3-28.6 66.25-30.85 67.9-32.43 69.55-34 71.72-34.85 73.9-35.7 76.4-35.7L76.4-35.7Q78.9-35.7 81.05-34.95 83.2-34.2 84.75-32.77 86.3-31.35 87.17-29.33 88.05-27.3 88.05-24.8L88.05-24.8ZM76.5-3L76.5-3Q78.3-3 79.77-3.58 81.25-4.15 82.3-5.2 83.35-6.25 83.9-7.7 84.45-9.15 84.45-10.9L84.45-10.9 84.45-11.5Q84.45-13.25 83.85-14.7 83.25-16.15 82.2-17.2 81.15-18.25 79.67-18.82 78.2-19.4 76.5-19.4L76.5-19.4Q74.8-19.4 73.35-18.8 71.9-18.2 70.82-17.15 69.75-16.1 69.15-14.7 68.55-13.3 68.55-11.7L68.55-11.7 68.55-10.75Q68.55-9.1 69.1-7.68 69.65-6.25 70.7-5.2 71.75-4.15 73.22-3.58 74.7-3 76.5-3ZM95.39-31.1L95.39-35 118.79-35 118.79-28.9 104.04-6.6Q102.99-5 102.44-3.85 101.89-2.7 101.89-1.5L101.89-1.5 101.89 0 97.79 0 97.79-1.8Q97.79-2.7 97.97-3.5 98.14-4.3 98.52-5.13 98.89-5.95 99.47-6.88 100.04-7.8 100.84-9L100.84-9 115.19-30.5 115.19-31.1 95.39-31.1ZM138.94-17.4L134.24-17.4 134.24-23.2 145.64-30.5 145.64-31.1 125.84-31.1 125.84-35 149.24-35 149.24-28.6 137.84-21.3 137.84-20.7 139.84-20.7Q141.84-20.7 143.69-20.05 145.54-19.4 146.97-18.15 148.39-16.9 149.27-15.08 150.14-13.25 150.14-10.85L150.14-10.85 150.14-9.95Q150.14-7.7 149.24-5.75 148.34-3.8 146.74-2.38 145.14-0.95 142.97-0.13 140.79 0.7 138.24 0.7L138.24 0.7Q135.29 0.7 132.94-0.2 130.59-1.1 128.94-2.68 127.29-4.25 126.42-6.38 125.54-8.5 125.54-10.9L125.54-10.9 125.54-13.6 129.74-13.6 129.74-11.2Q129.74-9.3 130.37-7.83 130.99-6.35 132.12-5.33 133.24-4.3 134.79-3.75 136.34-3.2 138.14-3.2L138.14-3.2Q139.79-3.2 141.22-3.75 142.64-4.3 143.69-5.28 144.74-6.25 145.34-7.58 145.94-8.9 145.94-10.4L145.94-10.4 145.94-10.7Q145.94-13.85 143.94-15.63 141.94-17.4 138.94-17.4L138.94-17.4ZM156.59-31.1L156.59-35 179.99-35 179.99-28.9 165.24-6.6Q164.19-5 163.64-3.85 163.09-2.7 163.09-1.5L163.09-1.5 163.09 0 158.99 0 158.99-1.8Q158.99-2.7 159.16-3.5 159.34-4.3 159.71-5.13 160.09-5.95 160.66-6.88 161.24-7.8 162.04-9L162.04-9 176.39-30.5 176.39-31.1 156.59-31.1ZM187.34-10.2L191.53-10.2Q191.53-6.95 193.53-4.98 195.53-3 199.09-3L199.09-3Q200.78-3 202.21-3.6 203.64-4.2 204.66-5.33 205.69-6.45 206.26-7.98 206.84-9.5 206.84-11.4L206.84-11.4 206.84-16.6 206.24-16.6Q205.09-14.4 202.94-13.15 200.78-11.9 197.94-11.9L197.94-11.9Q195.49-11.9 193.44-12.65 191.39-13.4 189.89-14.88 188.39-16.35 187.56-18.45 186.74-20.55 186.74-23.25L186.74-23.25 186.74-23.85Q186.74-26.45 187.64-28.63 188.53-30.8 190.16-32.38 191.78-33.95 194.01-34.83 196.24-35.7 198.89-35.7L198.89-35.7Q201.53-35.7 203.76-34.83 205.99-33.95 207.61-32.4 209.24-30.85 210.14-28.7 211.04-26.55 211.04-24L211.04-24 211.04-11.4Q211.04-8.6 210.11-6.38 209.19-4.15 207.56-2.58 205.94-1 203.74-0.15 201.53 0.7 198.99 0.7L198.99 0.7Q196.44 0.7 194.28-0.05 192.14-0.8 190.59-2.23 189.03-3.65 188.19-5.68 187.34-7.7 187.34-10.2L187.34-10.2ZM198.89-32L198.89-32Q197.09-32 195.61-31.4 194.14-30.8 193.09-29.7 192.03-28.6 191.49-27.13 190.94-25.65 190.94-23.95L190.94-23.95 190.94-23.35Q190.94-21.6 191.53-20.18 192.14-18.75 193.19-17.73 194.24-16.7 195.69-16.15 197.14-15.6 198.89-15.6L198.89-15.6Q200.59-15.6 202.03-16.18 203.49-16.75 204.56-17.75 205.64-18.75 206.24-20.15 206.84-21.55 206.84-23.15L206.84-23.15 206.84-24.1Q206.84-25.75 206.29-27.2 205.74-28.65 204.69-29.73 203.64-30.8 202.16-31.4 200.69-32 198.89-32Z" opacity="1" transform="matrix(1,0,0,1,0,0)" fill="#ffdb99" class="wordmark-text-0" data-fill-palette-color="primary" id="text-0"></path></svg></g></svg></g><g transform="matrix(1,0,0,1,0,85.78306664028925)"><svg viewBox="0 0 232.209792 39.452500682020926" height="39.452500682020926" width="232.209792"><g transform="matrix(1,0,0,1,0,0)"><svg width="232.209792" viewBox="4.960000038146973 -37.5 283.9300231933594 48.24318313598633" height="39.452500682020926" data-palette-color="#ff5db2"><path d="M7.71-35.55L8.84-9.59 8.81-4.61 10.62-9.52 20.85-35.55 23.34-35.55 25.34-9.3 25.54-4.52 27.25-9.74 36.38-35.55 39.26-35.55 26.34 0 23.71 0 21.58-27.81 21.44-30.83 20.29-27.71 9.38 0 6.71 0 4.96-35.55 7.71-35.55ZM46.9 0.49L46.9 0.49Q42.62 0.42 40.52-2.84 38.43-6.1 39.04-11.47L39.04-11.47 39.33-13.92Q40.09-20.12 43.06-23.57 46.04-27.03 50.53-26.9L50.53-26.9Q53.73-26.81 55.53-24.82 57.32-22.83 57.54-19.34L57.54-19.34Q57.66-17.26 57.42-15.28L57.42-15.28 57.1-12.96 41.99-12.96 41.75-11.45Q41.53-9.89 41.62-8.25L41.62-8.25Q41.75-5.44 43.19-3.76 44.63-2.08 47.12-2L47.12-2Q49.09-1.95 50.67-2.73 52.24-3.52 53.64-4.83L53.64-4.83 54.9-2.98Q51.88 0.59 46.9 0.49ZM50.36-24.39L50.36-24.39Q47.31-24.51 45.24-22.3 43.16-20.09 42.19-15.5L42.19-15.5 54.76-15.5 54.88-16.24Q55.05-17.58 54.98-18.99L54.98-18.99Q54.86-21.44 53.66-22.86 52.46-24.29 50.36-24.39ZM69.79 0.49L69.79 0.49Q67.67 0.44 66.06-0.57 64.45-1.59 63.59-3.56L63.59-3.56 62.76 0 60.25 0 66.77-37.5 69.45-37.5 66.69-22.73Q69.5-27 73.82-26.9L73.82-26.9Q77.34-26.81 78.99-24.26 80.63-21.7 80.46-17.16L80.46-17.16Q80.37-15.01 79.9-11.82L79.9-11.82Q79.02-5.64 76.47-2.51 73.92 0.61 69.79 0.49ZM77.17-11.25L77.58-14.5Q77.85-17.14 77.78-18.73L77.78-18.73Q77.58-21.63 76.41-22.96 75.24-24.29 73.12-24.34L73.12-24.34Q68.84-24.44 66.28-19.56L66.28-19.56 64.08-6.42Q65.33-2.25 69.45-2.1L69.45-2.1Q75.75-1.88 77.17-11.25L77.17-11.25ZM104.22-19.6L103.75-17.02 90.37-17.02 87.86-2.59 103.26-2.59 102.8 0 84.66 0 90.81-35.55 108.85-35.55 108.39-32.91 93.13-32.91 90.81-19.6 104.22-19.6ZM113-26.42L115.59-26.42 114.74-22.22Q117.98-27 122.23-26.93L122.23-26.93Q127.21-26.83 127.8-20.83L127.8-20.83 127.87-19.41 127.72-17.19 124.84 0 122.18 0 125.04-17.24 125.16-18.82Q125.33-24.27 121.38-24.37L121.38-24.37Q119.2-24.41 117.1-22.61 115-20.8 114.25-18.36L114.25-18.36 111.12 0 108.41 0 113-26.42ZM143.76-26.9L143.76-26.9Q145.91-26.83 147.47-25.76 149.04-24.68 149.84-22.71L149.84-22.71 150.72-26.42 153.23-26.42 148.62 0.63Q147.94 5.52 145.3 8.09 142.66 10.67 138.51 10.55L138.51 10.55Q136.46 10.5 134.5 9.47 132.53 8.45 131.34 6.76L131.34 6.76 132.82 4.86Q135.12 7.93 138.46 8.03L138.46 8.03Q141.59 8.13 143.47 6.26 145.35 4.39 145.91 0.78L145.91 0.78 146.69-3.27Q143.84 0.61 139.68 0.51L139.68 0.51Q136.39 0.46 134.66-2.05 132.92-4.57 133.07-9.3L133.07-9.3Q133.09-11.3 133.61-14.77L133.61-14.77Q134.51-20.92 137.05-23.97 139.59-27.03 143.76-26.9ZM136.32-14.94L135.93-11.91Q135.66-9.28 135.75-7.74L135.75-7.74Q136-2.15 140.37-2.08L140.37-2.08Q144.47-1.98 147.06-6.25L147.06-6.25 149.3-19.8Q148.13-24.15 144.15-24.32L144.15-24.32Q137.76-24.54 136.32-14.94L136.32-14.94ZM169.15-14.43L161.68-14.45 159.16 0 156.38 0 162.56-35.55 172.42-35.52Q176.69-35.38 178.85-32.56 181.02-29.74 180.6-25.1L180.6-25.1Q180.16-20.17 177.11-17.3 174.06-14.43 169.15-14.43L169.15-14.43ZM164.88-32.91L162.12-17.07 169.27-17.02Q172.79-17.02 175.11-19.19 177.43-21.36 177.84-25.07L177.84-25.07Q178.23-28.52 176.77-30.64 175.3-32.76 172.32-32.89L172.32-32.89 164.88-32.91ZM196.93-26.61L196.54-23.93Q195.44-24.12 194.88-24.12L194.88-24.12Q192.63-24.17 190.68-22.5 188.73-20.83 188.02-18.26L188.02-18.26 184.92 0 182.21 0 186.8-26.42 189.46-26.42 188.61-22.46Q191.32-27.15 195.22-26.98L195.22-26.98Q195.78-26.95 196.93-26.61L196.93-26.61ZM209.36-26.93L209.36-26.93Q212.94-26.83 214.95-24.3 216.95-21.78 217.02-17.41L217.02-17.41Q217.07-15.19 216.53-11.69L216.53-11.69Q215.65-5.88 212.71-2.62 209.77 0.63 205.35 0.51L205.35 0.51Q202.06 0.42 200.07-1.76 198.08-3.93 197.71-8.01L197.71-8.01 197.66-8.98Q197.59-10.96 198.16-14.73 198.73-18.51 200.24-21.26 201.74-24.02 204.04-25.51 206.35-27 209.36-26.93ZM200.42-11.11L200.37-9.72Q200.3-6.1 201.63-4.1 202.96-2.1 205.55-2L205.55-2Q208.72-1.88 210.88-4.31 213.04-6.74 213.8-11.47L213.8-11.47 214.21-14.58 214.34-16.65Q214.41-20.19 213.08-22.24 211.75-24.29 209.16-24.39L209.16-24.39Q205.89-24.51 203.67-21.78 201.44-19.04 200.81-14.21L200.81-14.21 200.42-11.11ZM225.44-26.42L228.15-26.42 223.12 3.15Q222.61 6.96 220.84 8.89 219.07 10.82 216.29 10.74L216.29 10.74Q215.38 10.72 214.02 10.23L214.02 10.23 214.33 7.76Q215.38 8.11 216.14 8.15L216.14 8.15Q219.53 8.23 220.39 3.3L220.39 3.3 225.44-26.42ZM228.2-36.06L228.2-36.06Q228.96-36.06 229.43-35.51 229.91-34.96 229.86-34.03L229.86-34.03Q229.81-33.28 229.3-32.67 228.79-32.06 227.98-32.03L227.98-32.03Q227.15-32.03 226.74-32.63 226.32-33.23 226.37-34.03 226.42-34.84 226.96-35.45 227.49-36.06 228.2-36.06ZM240.31 0.49L240.31 0.49Q236.03 0.42 233.93-2.84 231.84-6.1 232.45-11.47L232.45-11.47 232.74-13.92Q233.5-20.12 236.47-23.57 239.45-27.03 243.94-26.9L243.94-26.9Q247.14-26.81 248.94-24.82 250.73-22.83 250.95-19.34L250.95-19.34Q251.07-17.26 250.83-15.28L250.83-15.28 250.51-12.96 235.4-12.96 235.16-11.45Q234.94-9.89 235.03-8.25L235.03-8.25Q235.16-5.44 236.6-3.76 238.04-2.08 240.53-2L240.53-2Q242.5-1.95 244.08-2.73 245.65-3.52 247.05-4.83L247.05-4.83 248.31-2.98Q245.29 0.59 240.31 0.49ZM243.77-24.39L243.77-24.39Q240.72-24.51 238.65-22.3 236.57-20.09 235.6-15.5L235.6-15.5 248.17-15.5 248.29-16.24Q248.46-17.58 248.39-18.99L248.39-18.99Q248.27-21.44 247.07-22.86 245.87-24.29 243.77-24.39ZM262.25-2L262.25-2Q267.55-1.83 269.04-8.15L269.04-8.15 271.58-8.15Q270.9-4.2 268.34-1.79 265.79 0.61 262.11 0.51L262.11 0.51Q258.47 0.46 256.48-1.95 254.49-4.37 254.46-8.81L254.46-8.81Q254.42-11.04 255.08-15.19L255.08-15.19Q256-21.07 258.86-24.05 261.72-27.03 266.11-26.9L266.11-26.9Q269.65-26.78 271.52-24.3 273.39-21.83 273.17-17.5L273.17-17.5 270.55-17.5Q270.75-20.8 269.55-22.53 268.36-24.27 265.91-24.39L265.91-24.39Q259.3-24.61 257.81-15.21L257.81-15.21 257.3-11.3 257.17-9.55 257.15-8.76Q257.08-2.2 262.25-2ZM283-33.15L285.69-33.15 284.52-26.42 288.89-26.42 288.47-23.97 284.1-23.97 281.17-6.4 281.07-5.1Q280.98-2.25 282.98-2.2L282.98-2.2 284.88-2.37 284.71 0.07Q283.54 0.49 282.27 0.44L282.27 0.44Q280.46 0.42 279.51-0.79 278.56-2 278.46-4.15L278.46-4.15Q278.41-5.35 278.51-6.45L278.51-6.45 281.39-23.97 277.44-23.97 277.85-26.42 281.81-26.42 283-33.15Z" opacity="1" transform="matrix(1,0,0,1,0,0)" fill="#ff5db2" class="slogan-text-1" data-fill-palette-color="secondary" id="text-1"></path></svg></g></svg></g></svg></g></svg></g><g transform="matrix(1,0,0,1,0,10.99919432375306)"><svg viewBox="0 0 244.43135999999998 128.28429213926609" height="128.28429213926609" width="244.43135999999998"><g><svg xmlns="http://www.w3.org/2000/svg" xmlns:xlink="http://www.w3.org/1999/xlink" version="1.1" x="0" y="0" viewBox="5 26.381999969482422 90.0009994506836 47.2349967956543" enable-background="new 0 0 100 100" xml:space="preserve" height="128.28429213926609" width="244.43135999999998" class="icon-icon-0" data-fill-palette-color="accent" id="icon-0"><path fill="none" d="M50.482 28.475c-0.03 0.03-0.071 0.048-0.106 0.072C50.411 28.522 50.452 28.505 50.482 28.475z"></path><path fill="none" d="M50.628 28.259c-0.021 0.052-0.06 0.093-0.093 0.138C50.568 28.352 50.606 28.311 50.628 28.259z"></path><path fill="none" d="M50.553 27.618c0.025 0.037 0.058 0.069 0.075 0.111C50.61 27.688 50.578 27.655 50.553 27.618z"></path><path fill="none" d="M50.266 28.621c-0.082 0.034-0.171 0.053-0.265 0.053C50.095 28.674 50.184 28.655 50.266 28.621z"></path><path fill="none" d="M50.001 28.674c-0.375 0-0.68-0.304-0.68-0.68s0.305-0.68 0.68-0.68c-0.376 0-0.681 0.304-0.681 0.68S49.625 28.674 50.001 28.674z"></path><path fill="none" d="M50.001 27.314c0.094 0 0.183 0.019 0.265 0.053C50.184 27.333 50.095 27.314 50.001 27.314z"></path><path fill="none" d="M50.376 27.442c0.036 0.024 0.076 0.041 0.106 0.071C50.452 27.483 50.412 27.466 50.376 27.442z"></path><path fill="none" d="M54.305 70.684c0.375 0 0.678 0.305 0.68 0.68C54.984 70.988 54.68 70.684 54.305 70.684z"></path><path d="M86.63 69.109c0.108-0.227 0.177-0.478 0.177-0.746V28.107c0-0.953-0.772-1.725-1.727-1.725H14.92c-0.953 0-1.724 0.772-1.724 1.725v40.256c0 0.269 0.066 0.52 0.176 0.746H5v2.783c0 0.953 0.773 1.725 1.726 1.725h86.549c0.953 0 1.726-0.771 1.726-1.725v-2.783H86.63zM50.001 27.314c0.094 0 0.183 0.019 0.265 0.053 0.042 0.018 0.074 0.049 0.11 0.075 0.036 0.024 0.076 0.041 0.106 0.071 0.03 0.03 0.047 0.07 0.071 0.105 0.025 0.037 0.058 0.069 0.075 0.111 0.034 0.081 0.054 0.171 0.054 0.265s-0.02 0.183-0.054 0.265c-0.021 0.052-0.06 0.093-0.093 0.138-0.02 0.025-0.031 0.056-0.053 0.078-0.03 0.03-0.071 0.048-0.106 0.072-0.037 0.025-0.069 0.057-0.11 0.074-0.082 0.034-0.171 0.053-0.265 0.053-0.376 0-0.681-0.304-0.681-0.68S49.625 27.314 50.001 27.314zM16.143 29.708h67.714v36.571H16.143V29.708zM54.305 72.046h-8.608c-0.375 0-0.68-0.305-0.68-0.683 0-0.375 0.305-0.68 0.68-0.68h8.608c0.375 0 0.68 0.305 0.68 0.68C54.984 71.741 54.68 72.046 54.305 72.046z" fill="#ffdb99" data-fill-palette-color="accent"></path><polygon points="25.039,48.313 25.039,49.536 25.039,49.537 44.878,49.537 44.878,49.536 44.878,48.313 44.878,48.312   25.039,48.312 " fill="#ffdb99" data-fill-palette-color="accent"></polygon><rect x="36.633" y="58.613" width="3.488" height="1.225" fill="#ffdb99" data-fill-palette-color="accent"></rect><rect x="46.552" y="48.313" width="3.488" height="1.224" fill="#ffdb99" data-fill-palette-color="accent"></rect><rect x="39.377" y="46.296" width="3.488" height="1.224" fill="#ffdb99" data-fill-palette-color="accent"></rect><rect x="20.692" y="31.829" width="3.489" height="1.224" fill="#ffdb99" data-fill-palette-color="accent"></rect><rect x="20.692" y="42.131" width="3.489" height="1.224" fill="#ffdb99" data-fill-palette-color="accent"></rect><rect x="20.692" y="46.296" width="3.489" height="1.224" fill="#ffdb99" data-fill-palette-color="accent"></rect><rect x="20.692" y="48.313" width="3.489" height="1.224" fill="#ffdb99" data-fill-palette-color="accent"></rect><rect x="20.692" y="44.191" width="5.832" height="1.224" fill="#ffdb99" data-fill-palette-color="accent"></rect><rect x="25.039" y="46.296" width="12.665" height="1.224" fill="#ffdb99" data-fill-palette-color="accent"></rect><rect x="20.692" y="50.373" width="3.489" height="1.223" fill="#ffdb99" data-fill-palette-color="accent"></rect><rect x="20.692" y="54.494" width="3.489" height="1.223" fill="#ffdb99" data-fill-palette-color="accent"></rect><rect x="53.637" y="50.373" width="3.488" height="1.223" fill="#ffdb99" data-fill-palette-color="accent"></rect><rect x="25.039" y="50.373" width="27.761" height="1.223" fill="#ffdb99" data-fill-palette-color="accent"></rect><rect x="20.692" y="52.434" width="27.792" height="1.223" fill="#ffdb99" data-fill-palette-color="accent"></rect><rect x="25.039" y="54.494" width="23.444" height="1.223" fill="#ffdb99" data-fill-palette-color="accent"></rect><rect x="20.692" y="56.555" width="17.012" height="1.223" fill="#ffdb99" data-fill-palette-color="accent"></rect><rect x="20.692" y="58.613" width="14.267" height="1.225" fill="#ffdb99" data-fill-palette-color="accent"></rect><rect x="20.692" y="60.674" width="7.134" height="1.225" fill="#ffdb99" data-fill-palette-color="accent"></rect><rect x="20.692" y="62.736" width="5.832" height="1.223" fill="#ffdb99" data-fill-palette-color="accent"></rect><rect x="20.692" y="33.89" width="8.694" height="1.224" fill="#ffdb99" data-fill-palette-color="accent"></rect><rect x="20.692" y="35.95" width="11.594" height="1.224" fill="#ffdb99" data-fill-palette-color="accent"></rect><rect x="20.692" y="38.01" width="8.694" height="1.224" fill="#ffdb99" data-fill-palette-color="accent"></rect><rect x="20.692" y="40.071" width="8.694" height="1.224" fill="#ffdb99" data-fill-palette-color="accent"></rect><rect x="18.798" y="31.829" width="1.058" height="1.224" fill="#ffdb99" data-fill-palette-color="accent"></rect><rect x="18.798" y="33.89" width="1.058" height="1.224" fill="#ffdb99" data-fill-palette-color="accent"></rect><rect x="18.798" y="35.95" width="1.058" height="1.224" fill="#ffdb99" data-fill-palette-color="accent"></rect><rect x="18.798" y="38.01" width="1.058" height="1.224" fill="#ffdb99" data-fill-palette-color="accent"></rect><rect x="18.798" y="40.071" width="1.058" height="1.224" fill="#ffdb99" data-fill-palette-color="accent"></rect><rect x="18.798" y="42.131" width="1.058" height="1.224" fill="#ffdb99" data-fill-palette-color="accent"></rect><rect x="18.798" y="44.191" width="1.058" height="1.224" fill="#ffdb99" data-fill-palette-color="accent"></rect><rect x="18.798" y="46.252" width="1.058" height="1.224" fill="#ffdb99" data-fill-palette-color="accent"></rect><rect x="18.798" y="48.313" width="1.058" height="1.224" fill="#ffdb99" data-fill-palette-color="accent"></rect><rect x="18.798" y="50.373" width="1.058" height="1.223" fill="#ffdb99" data-fill-palette-color="accent"></rect><rect x="18.798" y="52.434" width="1.058" height="1.223" fill="#ffdb99" data-fill-palette-color="accent"></rect><rect x="18.798" y="54.494" width="1.058" height="1.223" fill="#ffdb99" data-fill-palette-color="accent"></rect><rect x="18.798" y="56.555" width="1.058" height="1.223" fill="#ffdb99" data-fill-palette-color="accent"></rect><rect x="18.798" y="58.613" width="1.058" height="1.225" fill="#ffdb99" data-fill-palette-color="accent"></rect><rect x="18.798" y="60.674" width="1.058" height="1.225" fill="#ffdb99" data-fill-palette-color="accent"></rect><rect x="18.798" y="62.736" width="1.058" height="1.223" fill="#ffdb99" data-fill-palette-color="accent"></rect></svg></g></svg></g></svg></g><defs></defs></svg><rect width="395.52" height="87.54318078677917" fill="none" stroke="none" visibility="hidden"></rect></g></svg></g></svg>